<?xml version="1.0"?>
<svg xmlns:dc="http://purl.org/dc/elements/1.1/" xmlns:cc="http://creativecommons.org/ns#" xmlns:rdf="http://www.w3.org/1999/02/22-rdf-syntax-ns#" xmlns:svg="http://www.w3.org/2000/svg" xmlns="http://www.w3.org/2000/svg" xmlns:xlink="http://www.w3.org/1999/xlink" xml:space="preserve" enable-background="new 0 0 340.16 184.25" viewBox="0 0 340.16 184.25" height="184.25px" width="340.16px" y="0px" x="0px" id="mixlogo" version="1.1">
  <metadata id="metadata17"/>
  <defs id="defs15"/>
  <g id="g10">
    <path id="path8" d="M322.021,161.397l-43.116-55.463l39.371-52.933h-21.254l-27.227,37.245                         l-24.29-37.245h-21.659l36.133,52.933l-39.371,55.463h22.469l26.416-39.472l29.553,39.472H322.021z M208.709,161.397V53.001                         h-34.107v16.194h14.877v92.202H208.709z M191.605,15.453c-2.295,2.295-3.442,5.096-3.442,8.401c0,3.306,1.164,6.123,3.492,8.451                         s5.11,3.491,8.351,3.491c3.305,0,6.122-1.163,8.45-3.491s3.492-5.145,3.492-8.451c0-3.239-1.164-6.022-3.492-8.35                         c-2.328-2.328-5.146-3.492-8.45-3.492C196.698,12.012,193.898,13.16,191.605,15.453 M163.205,161.397V88.932                         c0-12.009-3.071-21.338-9.21-27.985c-6.141-6.645-14.812-9.969-26.011-9.969c-6.209,0-12.246,1.384-18.117,4.15                         c-5.87,2.767-9.885,6.208-12.044,10.323c-6.208-9.648-17.071-14.473-32.589-14.473c-11.133,0-20.411,4.858-27.833,14.574                         l-6.376-12.55h-12.55v108.396h19.23V81.441c1.822-3.575,4.908-6.847,9.26-9.817c4.352-2.968,8.451-4.453,12.297-4.453                         c6.612,0,11.926,1.535,15.941,4.604c4.014,3.071,6.022,7.271,6.022,12.601v77.021h19.23V81.24c1.483-3.644,4.251-6.898,8.299-9.767                         c4.048-2.867,8.4-4.301,13.056-4.301c14.777,0,22.165,8.536,22.165,25.605v68.62H163.205z" fill="#ffffff"/>
  </g>
</svg>
