<svg id="mix-icon-copyright" xmlns="http://www.w3.org/2000/svg" viewBox="0 0 37.23 36.28"><defs><style>.cls-1{fill:none;stroke:#edeeee;}.cls-2{fill:#edeeee;}</style></defs><title>mix-icon-copyright</title><ellipse class="cls-1" cx="18.61" cy="18.14" rx="18.11" ry="17.64"/><path class="cls-2" d="M24.78,24.95h2.93v.17a3.82,3.82,0,0,1-.88,2.3,5.62,5.62,0,0,1-2.32,1.78,8.8,8.8,0,0,1-3.46.61,7.54,7.54,0,0,1-6-2.38A9.72,9.72,0,0,1,13,20.79a9.69,9.69,0,0,1,2.1-6.6,7.52,7.52,0,0,1,6-2.4,8.79,8.79,0,0,1,3.46.62,6,6,0,0,1,2.32,1.7,3.69,3.69,0,0,1,.88,2.39v.17H24.78v-.17a1.91,1.91,0,0,0-.85-1.62,4.37,4.37,0,0,0-2.74-.71,4.87,4.87,0,0,0-3.69,1.57Q16,17.3,16,20.79t1.49,5.09a4.87,4.87,0,0,0,3.69,1.57,4.3,4.3,0,0,0,2.71-.7,2.06,2.06,0,0,0,.87-1.64Z" transform="translate(-2.1 -2.6)"/></svg>