<?xml version="1.0" encoding="utf-8"?>
<!-- Generator: Adobe Illustrator 15.1.0, SVG Export Plug-In . SVG Version: 6.00 Build 0)  -->
<!DOCTYPE svg PUBLIC "-//W3C//DTD SVG 1.1//EN" "http://www.w3.org/Graphics/SVG/1.1/DTD/svg11.dtd">
<svg version="1.1" id="Ebene_1" xmlns="http://www.w3.org/2000/svg" xmlns:xlink="http://www.w3.org/1999/xlink" x="0px" y="0px"
	 width="607px" height="243px" viewBox="0 0 607 243" enable-background="new 0 0 607 243" xml:space="preserve">
<g>
	<defs>
		<rect id="SVGID_1_" x="0.074" y="1.07" width="606.883" height="128.138"/>
	</defs>
	<clipPath id="SVGID_2_">
		<use xlink:href="#SVGID_1_"  overflow="visible"/>
	</clipPath>
	
		<linearGradient id="SVGID_3_" gradientUnits="userSpaceOnUse" x1="0" y1="242.999" x2="1" y2="242.999" gradientTransform="matrix(0 -128.1376 -128.1376 0 31440.9297 129.1875)">
		<stop  offset="0" style="stop-color:#F6F6F6"/>
		<stop  offset="0.1684" style="stop-color:#F3EAD6"/>
		<stop  offset="0.4299" style="stop-color:#EFDAAB"/>
		<stop  offset="0.6651" style="stop-color:#ECCF8B"/>
		<stop  offset="0.8632" style="stop-color:#EBC878"/>
		<stop  offset="1" style="stop-color:#EAC571"/>
	</linearGradient>
	<rect x="0.074" y="1.07" clip-path="url(#SVGID_2_)" fill="url(#SVGID_3_)" width="606.883" height="128.138"/>
</g>
<g>
	<defs>
		<rect id="SVGID_4_" width="607" height="243"/>
	</defs>
	<clipPath id="SVGID_5_">
		<use xlink:href="#SVGID_4_"  overflow="visible"/>
	</clipPath>
	<path clip-path="url(#SVGID_5_)" fill="#B51B3F" d="M43.795,71.021c0,4.115-3.351,7.45-7.484,7.45c-4.134,0-7.485-3.335-7.485-7.45
		c0-4.114,3.351-7.45,7.485-7.45C40.444,63.571,43.795,66.907,43.795,71.021"/>
	<path clip-path="url(#SVGID_5_)" fill="#B51B3F" d="M305.33,120.341c23.141-8.564,41.379-12.011,71.911-3.67
		c14.925,4.077,26.916,7.006,38.567,8.341c8.744,1.002,18.01,0.209,34.549-6.339c34.55-13.679,62.27-2.002,81.955,4.671
		c33.309,11.291,71.71,18.851,71.71,18.851l-41.58-0.501l-254.902,0.501h-83.764C223.776,142.194,268.37,134.02,305.33,120.341"/>
	<path clip-path="url(#SVGID_5_)" fill="#A71330" d="M151.22,119.94v-6.53c0,0,2.827-0.594,3.424-2.771
		c0.511-1.865,0.298-3.232,0.298-3.232s-0.133-1.055-1.292-1.011c-0.972,0.037-1.06,1.275-1.06,1.275s-0.049,1.291-0.177,1.803
		c-0.221,0.88-1.326,0.924-1.326,0.924v-7.41c0,0,0.067-1.056-1.215-1.056c-1.281,0-1.215,1.122-1.215,1.122v11.609
		c0,0-1.3,0.511-1.943-0.396c-0.586-0.824-0.453-1.814-0.453-1.814s0.132-1.484-1.226-1.451c-1.193,0.029-1.193,1.253-1.193,1.253
		s-0.133,1.265,0.353,2.452c0.486,1.188,1.635,2.375,2.784,2.639c1.148,0.263,1.634,0.132,1.634,0.132v5.145h2.607V119.94z"/>
	<path clip-path="url(#SVGID_5_)" fill="none" stroke="#A71330" stroke-width="0.5" stroke-miterlimit="10" d="M151.22,119.94v-6.53
		c0,0,2.827-0.594,3.424-2.771c0.511-1.865,0.298-3.232,0.298-3.232s-0.133-1.055-1.292-1.011c-0.972,0.037-1.06,1.275-1.06,1.275
		s-0.049,1.291-0.177,1.803c-0.221,0.88-1.326,0.924-1.326,0.924v-7.41c0,0,0.067-1.056-1.215-1.056
		c-1.281,0-1.215,1.122-1.215,1.122v11.609c0,0-1.3,0.511-1.943-0.396c-0.586-0.824-0.453-1.814-0.453-1.814
		s0.132-1.484-1.226-1.451c-1.193,0.029-1.193,1.253-1.193,1.253s-0.133,1.265,0.353,2.452c0.486,1.188,1.635,2.375,2.784,2.639
		c1.148,0.263,1.634,0.132,1.634,0.132v5.145h2.607V119.94z"/>
	<path clip-path="url(#SVGID_5_)" fill="#9E0E30" d="M575.117,120.476c-36.142-16.21-63.172-5.796-78.464-3.249
		c-13.939,2.323-36.5,8.932-65.795,15.104c-35.542,7.485-65.464,5.308-90.597,2.494c-16.726-1.871-40.296-7.234-57.146-13.101
		c-37.633-13.102-59.469-5.615-76.659-1.872c-9.394,2.045-24.795,6.139-41.814,4.367c-29.967-3.119-38.128-12.056-60.776-14.968
		c-15.271-1.963-39.732,0.557-60.144,10.303c-20.791,9.928-43.644,9.476-43.644,9.476L0,184.734l606.965-2.495v-53.21
		C606.965,129.029,590.054,127.175,575.117,120.476"/>
	<path clip-path="url(#SVGID_5_)" fill="#C41841" d="M607,243H0V140.544c0,0,51.616,3.372,100.479,3.372
		c48.867,0,136.265-8.752,200.268-2.693c55.759,5.278,149.236,1.821,198.894-0.679c66.756-3.361,107.359,0,107.359,0V243z"/>
	<path clip-path="url(#SVGID_5_)" fill="#5F0F27" d="M340.574,136.813v-13.558c0,0-5.81-1.233-7.035-5.753
		c-1.051-3.872-0.612-6.71-0.612-6.71s0.271-2.191,2.655-2.1c1.998,0.077,2.179,2.648,2.179,2.648s0.099,2.68,0.363,3.743
		c0.454,1.826,2.723,2.306,2.723,2.306v-15.773c0,0-0.136-2.191,2.497-2.191s2.497,2.328,2.497,2.328v24.104
		c0,0,2.671,1.061,3.994-0.822c1.203-1.712,0.93-3.766,0.93-3.766s-0.271-3.081,2.519-3.013c2.451,0.06,2.452,2.602,2.452,2.602
		s0.272,2.625-0.726,5.09c-0.999,2.465-3.359,4.931-5.72,5.479s-3.359,0.273-3.359,0.273v10.683h-5.356V136.813z"/>
	<path clip-path="url(#SVGID_5_)" fill="none" stroke="#5F0F27" stroke-width="0.5" stroke-miterlimit="10" d="M340.574,136.813
		v-13.558c0,0-5.81-1.233-7.035-5.753c-1.051-3.872-0.612-6.71-0.612-6.71s0.271-2.191,2.655-2.1
		c1.998,0.077,2.179,2.648,2.179,2.648s0.099,2.68,0.363,3.743c0.454,1.826,2.723,2.306,2.723,2.306v-15.773
		c0,0-0.136-2.191,2.497-2.191s2.497,2.328,2.497,2.328v24.104c0,0,2.671,1.061,3.994-0.822c1.203-1.712,0.93-3.766,0.93-3.766
		s-0.271-3.081,2.519-3.013c2.451,0.06,2.452,2.602,2.452,2.602s0.272,2.625-0.726,5.09c-0.999,2.465-3.359,4.931-5.72,5.479
		s-3.359,0.273-3.359,0.273v10.683h-5.356V136.813z"/>
	<path clip-path="url(#SVGID_5_)" fill-rule="evenodd" clip-rule="evenodd" fill="#720C29" d="M246.994,222.335
		c0,0,29.875-28.904,26.994-43.351c-3.391,7.844-9.496,17.851-19.34,25.441c-9.843,7.59-21.568,16.347-15.872,18.539
		C244.472,225.157,246.994,222.335,246.994,222.335"/>
	<path clip-path="url(#SVGID_5_)" fill-rule="evenodd" clip-rule="evenodd" fill="#720C29" d="M229.598,225.127
		c0,0-25.096-32.417-20.216-47.951c0.191,11.912,7.64,17.311,17.447,26.715c9.808,9.405,18.113,21.044,11.645,22.826
		C232.006,228.499,229.598,225.127,229.598,225.127"/>
	<path clip-path="url(#SVGID_5_)" fill-rule="evenodd" clip-rule="evenodd" fill="#720C29" d="M249.836,224.993
		c0,0,33.959-18.215,37.11-31.428c-5.338,5.618-9.965,12.496-20.62,16.011c-10.654,3.515-22.077,7.616-23.181,15.305
		C242.395,230.087,249.836,224.993,249.836,224.993"/>
	<path clip-path="url(#SVGID_5_)" fill-rule="evenodd" clip-rule="evenodd" fill="#720C29" d="M235.063,215.162
		c-4.063-3.678-9.815-20.187-11.307-32.689c4.536,8.449,5.433,12.307,12.405,18.994c6.974,6.688,12.489,14.043,8.279,16.229
		C236.546,221.797,239.351,219.042,235.063,215.162"/>
	<path clip-path="url(#SVGID_5_)" fill-rule="evenodd" clip-rule="evenodd" fill="#720C29" d="M246.197,218.928
		c0,0,14.724-21.334,13.415-37.667c-1.276,6.579-4.275,15.255-10.569,22.655c-6.294,7.402-13.837,15.997-9.074,16.791
		C244.734,221.501,246.197,218.928,246.197,218.928"/>
	<path clip-path="url(#SVGID_5_)" fill-rule="evenodd" clip-rule="evenodd" fill="#720C29" d="M238.137,231.48
		c0,0-29.127-16.552-37.367-30.715c9.051,8.143,11.869,9.661,25.722,9.416c13.854-0.245,22.803,8.528,19.644,14.237
		S238.137,231.48,238.137,231.48"/>
	<path clip-path="url(#SVGID_5_)" fill-rule="evenodd" clip-rule="evenodd" fill="#720C29" d="M241.256,233.24
		c0,0,34.527-10.146,44.501-23.238c-11.818,3.441-15.89,5.495-29.727,6.194c-13.61,0.688-24.231,3.064-21.818,9.101
		C236.623,231.333,241.256,233.24,241.256,233.24"/>
	<path clip-path="url(#SVGID_5_)" fill-rule="evenodd" clip-rule="evenodd" fill="#720C29" d="M238.398,206.863
		c-2.311-4.883-1.127-22.255,2.42-34.369c0.868,9.471,0.178,13.367,3.995,22.094c3.818,8.727,6.023,17.541,1.265,18.033
		C237.156,213.543,240.836,212.015,238.398,206.863"/>
	<path clip-path="url(#SVGID_5_)" fill="#5F0F27" d="M550.36,171.469v-31.091c0,0,13.322-2.827,16.134-13.19
		c2.408-8.881,1.404-15.388,1.404-15.388s-0.623-5.025-6.089-4.816c-4.582,0.175-4.996,6.071-4.996,6.071s-0.227,6.147-0.833,8.585
		c-1.041,4.187-6.245,5.287-6.245,5.287V90.757c0,0,0.312-5.025-5.726-5.025c-6.037,0-5.725,5.339-5.725,5.339v55.272
		c0,0-6.127,2.433-9.159-1.884c-2.759-3.926-2.134-8.637-2.134-8.637s0.624-7.065-5.777-6.909c-5.619,0.138-5.621,5.968-5.621,5.968
		s-0.625,6.02,1.665,11.673c2.29,5.652,7.703,11.306,13.116,12.562c5.412,1.256,7.702,0.628,7.702,0.628v24.496h12.283V171.469z"/>
	<path clip-path="url(#SVGID_5_)" fill="none" stroke="#5F0F27" stroke-width="0.5" stroke-miterlimit="10" d="M550.36,171.469
		v-31.091c0,0,13.322-2.827,16.134-13.19c2.408-8.881,1.404-15.388,1.404-15.388s-0.623-5.025-6.089-4.816
		c-4.582,0.175-4.996,6.071-4.996,6.071s-0.227,6.147-0.833,8.585c-1.041,4.187-6.245,5.287-6.245,5.287V90.757
		c0,0,0.312-5.025-5.726-5.025c-6.037,0-5.725,5.339-5.725,5.339v55.272c0,0-6.127,2.433-9.159-1.884
		c-2.759-3.926-2.134-8.637-2.134-8.637s0.624-7.065-5.777-6.909c-5.619,0.138-5.621,5.968-5.621,5.968s-0.625,6.02,1.665,11.673
		c2.29,5.652,7.703,11.306,13.116,12.562c5.412,1.256,7.702,0.628,7.702,0.628v24.496h12.283V171.469z"/>
	<path clip-path="url(#SVGID_5_)" fill-rule="evenodd" clip-rule="evenodd" fill="#C63259" d="M68.912,143.22
		c0,0-6.471-7.199-5.634-10.586c0.678,1.897,1.95,4.34,4.106,6.254c2.156,1.914,4.728,4.127,3.399,4.579
		C69.454,143.918,68.912,143.22,68.912,143.22"/>
	<path clip-path="url(#SVGID_5_)" fill-rule="evenodd" clip-rule="evenodd" fill="#C63259" d="M72.854,144.087
		c0,0,6.139-7.379,5.216-11.116c-0.192,2.819-1.961,4.009-4.32,6.12c-2.358,2.111-4.401,4.769-2.945,5.267
		C72.262,144.856,72.854,144.087,72.854,144.087"/>
	<path clip-path="url(#SVGID_5_)" fill-rule="evenodd" clip-rule="evenodd" fill="#C63259" d="M68.229,143.815
		c0,0-7.537-4.716-8.094-7.882c1.151,1.393,2.123,3.077,4.515,4.035c2.392,0.959,4.953,2.065,5.11,3.899
		C69.868,145.109,68.229,143.815,68.229,143.815"/>
	<path clip-path="url(#SVGID_5_)" fill-rule="evenodd" clip-rule="evenodd" fill="#C63259" d="M71.728,141.662
		c0.975-0.822,2.494-4.664,2.99-7.606c-1.142,1.947-1.394,2.85-3.071,4.351c-1.677,1.501-3.029,3.178-2.094,3.745
		C71.307,143.216,70.7,142.53,71.728,141.662"/>
	<path clip-path="url(#SVGID_5_)" fill-rule="evenodd" clip-rule="evenodd" fill="#C63259" d="M69.137,142.423
		c0,0-3.102-5.228-2.6-9.079c0.21,1.572,0.788,3.663,2.135,5.489c1.347,1.828,2.965,3.952,1.866,4.084
		S69.137,142.423,69.137,142.423"/>
	<path clip-path="url(#SVGID_5_)" fill-rule="evenodd" clip-rule="evenodd" fill="#C63259" d="M70.824,145.49
		c0,0,6.863-3.574,8.922-6.831c-2.17,1.821-2.833,2.148-5.996,1.925c-3.164-0.222-5.319,1.75-4.667,3.14
		C69.734,145.113,70.824,145.49,70.824,145.49"/>
	<path clip-path="url(#SVGID_5_)" fill-rule="evenodd" clip-rule="evenodd" fill="#C63259" d="M70.088,145.87
		c0,0-7.767-2.812-9.885-6.031c2.659,0.955,3.565,1.49,6.719,1.82c3.103,0.324,5.501,1.012,4.875,2.413S70.088,145.87,70.088,145.87
		"/>
	<path clip-path="url(#SVGID_5_)" fill-rule="evenodd" clip-rule="evenodd" fill="#C63259" d="M71.069,139.657
		c0.589-1.129,0.533-5.257-0.127-8.168c-0.316,2.232-0.206,3.164-1.187,5.186c-0.981,2.021-1.595,4.083-0.513,4.255
		C71.27,141.255,70.448,140.849,71.069,139.657"/>
	<path clip-path="url(#SVGID_5_)" fill-rule="evenodd" clip-rule="evenodd" fill="#9E0E30" d="M434.144,163.491
		c0,0-9.928-10.875-8.693-16.036c1.054,2.878,3.016,6.578,6.318,9.465s7.239,6.223,5.224,6.925S434.144,163.491,434.144,163.491"/>
	<path clip-path="url(#SVGID_5_)" fill-rule="evenodd" clip-rule="evenodd" fill="#9E0E30" d="M440.149,164.765
		c0,0,9.25-11.295,7.802-16.968c-0.258,4.289-2.935,6.12-6.498,9.357c-3.562,3.239-6.638,7.306-4.417,8.047
		C439.258,165.942,440.149,164.765,440.149,164.765"/>
	<path clip-path="url(#SVGID_5_)" fill-rule="evenodd" clip-rule="evenodd" fill="#9E0E30" d="M433.111,164.405
		c0,0-11.52-7.085-12.403-11.895c1.767,2.105,3.266,4.655,6.916,6.086c3.648,1.431,7.557,3.084,7.816,5.871
		C435.618,166.355,433.111,164.405,433.111,164.405"/>
	<path clip-path="url(#SVGID_5_)" fill-rule="evenodd" clip-rule="evenodd" fill="#9E0E30" d="M438.408,161.09
		c1.473-1.263,3.738-7.124,4.458-11.605c-1.713,2.975-2.087,4.352-4.62,6.653c-2.533,2.303-4.57,4.869-3.14,5.721
		C437.785,163.458,436.854,162.423,438.408,161.09"/>
	<path clip-path="url(#SVGID_5_)" fill-rule="evenodd" clip-rule="evenodd" fill="#9E0E30" d="M434.475,162.276
		c0,0-4.778-7.914-4.061-13.779c0.338,2.39,1.242,5.562,3.312,8.326c2.07,2.764,4.557,5.977,2.887,6.189
		C434.943,163.225,434.475,162.276,434.475,162.276"/>
	<path clip-path="url(#SVGID_5_)" fill-rule="evenodd" clip-rule="evenodd" fill="#9E0E30" d="M437.077,166.923
		c0,0,10.396-5.517,13.491-10.494c-3.279,2.795-4.283,3.3-9.099,2.998c-4.814-0.301-8.068,2.724-7.062,4.829
		S437.077,166.923,437.077,166.923"/>
	<path clip-path="url(#SVGID_5_)" fill-rule="evenodd" clip-rule="evenodd" fill="#9E0E30" d="M435.964,167.51
		c0,0-11.847-4.188-15.106-9.059c4.057,1.422,5.439,2.226,10.241,2.689c4.724,0.457,8.379,1.476,7.443,3.614
		S435.964,167.51,435.964,167.51"/>
	<path clip-path="url(#SVGID_5_)" fill-rule="evenodd" clip-rule="evenodd" fill="#9E0E30" d="M437.382,158.048
		c0.882-1.724,0.75-8.002-0.29-12.422c-0.454,3.4-0.276,4.814-1.744,7.9s-2.377,6.229-0.729,6.479
		C437.707,160.475,436.451,159.867,437.382,158.048"/>
</g>
</svg>
