<?xml version="1.0" encoding="utf-8"?>
<!-- Generator: Adobe Illustrator 21.0.2, SVG Export Plug-In . SVG Version: 6.00 Build 0)  -->
<svg version="1.1" baseProfile="basic" id="Capa_1" xmlns="http://www.w3.org/2000/svg" xmlns:xlink="http://www.w3.org/1999/xlink"
	 x="0px" y="0px" viewBox="0 0 21.7 14.8" xml:space="preserve">
<g>
	<g>
		<path fill="#AFAFAF" d="M10.8,8.7L10.8,8.7c0.2,0,0.3,0,0.4-0.1l0,0c0,0,0,0,0,0l0.4-0.3l9.5-7.9c0,0-0.1,0-0.1,0H0.3
			c0,0,0,0-0.1,0l10,8.2C10.4,8.7,10.6,8.7,10.8,8.7z M0.2,1.5v11.6l7.2-5.8L0.2,1.5z M14.1,7.4l7.1,5.7V1.5L14.1,7.4z M11.8,9.3
			c-0.3,0.2-0.7,0.4-1,0.4c-0.4,0-0.8-0.1-1-0.4L8.1,7.9l-7.8,6.3v0c0,0.1,0.1,0.1,0.1,0.1h20.8c0.1,0,0.1-0.1,0.1-0.1v0l-7.8-6.3
			L11.8,9.3z"/>
	</g>
</g>
</svg>
