<svg id="MIXICON_Trailer_Red" xmlns="http://www.w3.org/2000/svg" viewBox="0 0 21.33 21.33"><defs><style>.cls-1{fill:#bf1031;}.cls-2{fill:#f2f2f2;}</style></defs><title>MIXICON_Trailer_Red</title><rect class="cls-1" width="21.33" height="21.33" rx="2" ry="2"/><rect class="cls-2" x="0.81" y="3.13" width="2.44" height="2.44" rx="0.5" ry="0.5"/><rect class="cls-2" x="0.81" y="7.63" width="2.44" height="2.44" rx="0.5" ry="0.5"/><rect class="cls-2" x="0.81" y="12.14" width="2.44" height="2.44" rx="0.5" ry="0.5"/><rect class="cls-2" x="0.81" y="16.64" width="2.44" height="2.44" rx="0.5" ry="0.5"/><rect class="cls-2" x="18.12" y="3.13" width="2.44" height="2.44" rx="0.5" ry="0.5"/><rect class="cls-2" x="18.12" y="7.63" width="2.44" height="2.44" rx="0.5" ry="0.5"/><rect class="cls-2" x="18.12" y="12.14" width="2.44" height="2.44" rx="0.5" ry="0.5"/><rect class="cls-2" x="18.12" y="16.64" width="2.44" height="2.44" rx="0.5" ry="0.5"/><path class="cls-2" d="M15.07,12.29a.53.53,0,0,0,0-1L9.13,7.86c-.48-.28-.87,0-.87.5v6.85c0,.55.39.78.87.5Z" transform="translate(-1.02 -1.12)"/></svg>