<?xml version="1.0" encoding="utf-8"?>
<!-- Generator: Adobe Illustrator 21.0.2, SVG Export Plug-In . SVG Version: 6.00 Build 0)  -->
<svg version="1.1" id="mix-icon-view" xmlns="http://www.w3.org/2000/svg" xmlns:xlink="http://www.w3.org/1999/xlink" x="0px"
	 y="0px" viewBox="0 0 41.4 41.5" style="enable-background:new 0 0 41.4 41.5;" xml:space="preserve">
<style type="text/css">
	.st0{opacity:0.9;fill:#BF1031;}
	.st1{fill:none;}
	.st2{fill:#1A1A1A;stroke:#1A1A1A;stroke-width:0.5;stroke-miterlimit:10;}
</style>
<title>Ansicht Button</title>
<g>
	<circle class="st0" cx="20.7" cy="20.7" r="20.5"/>
	<circle class="st1" cx="18.1" cy="18.3" r="5.5"/>
	<path class="st2" d="M31.7,28.9l-7.8-6.6c2.2-3.2,1.4-7.6-1.8-9.8s-7.6-1.4-9.8,1.8s-1.4,7.6,1.8,9.8c2.6,1.8,6.2,1.6,8.6-0.5
		l7.9,6.6L31.7,28.9z M18.1,23.7c-3,0-5.5-2.4-5.5-5.5s2.4-5.5,5.5-5.5s5.5,2.4,5.5,5.5l0,0C23.6,21.3,21.2,23.7,18.1,23.7z"/>
</g>
</svg>
