<?xml version="1.0" encoding="utf-8"?>
<!-- Generator: Adobe Illustrator 21.0.2, SVG Export Plug-In . SVG Version: 6.00 Build 0)  -->
<svg version="1.1" id="Capa_1" xmlns="http://www.w3.org/2000/svg" xmlns:xlink="http://www.w3.org/1999/xlink" x="0px" y="0px"
	 viewBox="0 0 16.8 23.5" style="enable-background:new 0 0 16.8 23.5;" xml:space="preserve">
<style type="text/css">
	.st0{fill:#BF1031;}
</style>
<g>
	<g>
		<path class="st0" d="M1.1,6.6c0-0.3,0.2-0.5,0.4-0.5h14.2c0.3,0,0.5,0.2,0.4,0.5l-1.6,15.1c0,0.3-0.3,0.5-0.6,0.5H3.3
			c-0.3,0-0.5-0.2-0.6-0.5L1.1,6.6z"/>
	</g>
	<g>
		<path class="st0" d="M11.3,2.7c-0.3,0-0.5-0.2-0.5-0.5V1.7c0-0.3-0.2-0.5-0.5-0.5H6.9c-0.3,0-0.5,0.2-0.5,0.5v0.5
			c0,0.3-0.2,0.5-0.5,0.5H1.5C1.2,2.7,1,2.9,1,3.2v0.9c0,0.3,0.2,0.5,0.5,0.5h14.2c0.3,0,0.5-0.2,0.5-0.5V3.2c0-0.3-0.2-0.5-0.5-0.5
			H11.3z"/>
	</g>
</g>
</svg>
