<svg id="Capa_1" data-name="Capa 1" xmlns="http://www.w3.org/2000/svg" viewBox="0 0 17.5 20"><defs><style>.cls-1{fill:#111;}</style></defs><title>MIXICON_Merkliste</title><path class="cls-1" d="M17.49,9.6a8.46,8.46,0,0,0-2.94-1.07,13.4,13.4,0,0,0-3.23,0h0L7.17,3.28h0s.12-.61.15-1A3.71,3.71,0,0,0,7.2,1.17,1.32,1.32,0,0,0,6.83.43C6.67.31,6.42.5,6.42.5l-3,2h0l-3,2s-.28.16-.23.35.28.41.55.62a3.85,3.85,0,0,0,1,.56c.33.1.94.22,1,.23h0L6.09,12h0a12.88,12.88,0,0,0-1.26,2.93A8.12,8.12,0,0,0,4.7,18c.14.5.44.36.72.18l5.43-3.56h0l4.4,5.79.39-.27-3.71-6.23h0l5.43-3.56C17.66,10.15,17.91,9.92,17.49,9.6Z" transform="translate(-0.21 -0.39)"/></svg>