<svg height="480pt" viewBox="-63 0 479 480" width="480pt" xmlns="http://www.w3.org/2000/svg"><path d="m24.5 472h304c8.824219-.027344 15.972656-7.175781 16-16v-368h-64c-8.824219-.027344-15.972656-7.175781-16-16v-64h-240c-8.824219.027344-15.972656 7.175781-16 16v432c.027344 8.824219 7.175781 15.972656 16 16zm56-328c8.835938 0 16 7.164062 16 16s-7.164062 16-16 16-16-7.164062-16-16c.027344-8.824219 7.175781-15.972656 16-16zm0 80c8.835938 0 16 7.164062 16 16s-7.164062 16-16 16-16-7.164062-16-16c.027344-8.824219 7.175781-15.972656 16-16zm0 80c8.835938 0 16 7.164062 16 16s-7.164062 16-16 16-16-7.164062-16-16c.027344-8.824219 7.175781-15.972656 16-16zm0 80c8.835938 0 16 7.164062 16 16s-7.164062 16-16 16-16-7.164062-16-16c.027344-8.824219 7.175781-15.972656 16-16zm0 0" fill="#78b9eb"/><g fill="#1a6fb0"><path d="m352.429688 88c.015624-2.109375-.800782-4.144531-2.273438-5.65625l-80-80c-1.503906-1.484375-3.542969-2.3007812-5.65625-2.2734375v-.0703125h-240c-13.253906 0-24 10.746094-24 24v432c0 13.253906 10.746094 24 24 24h304c13.253906 0 24-10.746094 24-24v-368zm-79.929688-60.6875 52.6875 52.6875h-44.6875c-4.417969 0-8-3.582031-8-8zm56 436.6875h-304c-4.417969 0-8-3.582031-8-8v-432c0-4.417969 3.582031-8 8-8h232v56c0 13.253906 10.746094 24 24 24h56v360c0 4.417969-3.582031 8-8 8zm0 0"/><path d="m80.5 216c-13.253906 0-24 10.746094-24 24s10.746094 24 24 24 24-10.746094 24-24-10.746094-24-24-24zm0 32c-4.417969 0-8-3.582031-8-8s3.582031-8 8-8 8 3.582031 8 8-3.582031 8-8 8zm0 0"/><path d="m136.5 232h160v16h-160zm0 0"/><path d="m80.5 136c-13.253906 0-24 10.746094-24 24s10.746094 24 24 24 24-10.746094 24-24-10.746094-24-24-24zm0 32c-4.417969 0-8-3.582031-8-8s3.582031-8 8-8 8 3.582031 8 8-3.582031 8-8 8zm0 0"/><path d="m136.5 152h160v16h-160zm0 0"/><path d="m80.5 296c-13.253906 0-24 10.746094-24 24s10.746094 24 24 24 24-10.746094 24-24-10.746094-24-24-24zm0 32c-4.417969 0-8-3.582031-8-8s3.582031-8 8-8 8 3.582031 8 8-3.582031 8-8 8zm0 0"/><path d="m136.5 312h160v16h-160zm0 0"/><path d="m80.5 376c-13.253906 0-24 10.746094-24 24s10.746094 24 24 24 24-10.746094 24-24-10.746094-24-24-24zm0 32c-4.417969 0-8-3.582031-8-8s3.582031-8 8-8 8 3.582031 8 8-3.582031 8-8 8zm0 0"/><path d="m136.5 392h160v16h-160zm0 0"/></g></svg>