<?xml version="1.0" encoding="utf-8"?>
<!-- Generator: Adobe Illustrator 21.0.2, SVG Export Plug-In . SVG Version: 6.00 Build 0)  -->
<svg version="1.1" id="Capa_1" xmlns="http://www.w3.org/2000/svg" xmlns:xlink="http://www.w3.org/1999/xlink" x="0px" y="0px"
	 viewBox="0 0 1240 648" style="enable-background:new 0 0 1240 648;" xml:space="preserve">
<style type="text/css">
	.st0{fill:#C1272D;}
	.st1{fill:none;stroke:#C1272D;stroke-miterlimit:10;}
</style>
<title>MIX_Grafic1_Web</title>
<g>
	<g id="Capa_1_1_">
		<g id="triangle36">
			<path class="st0" d="M767.3,338.6h0.2l61.8,3.6l-94.8,32.8L767.3,338.6z M824.8,342.9l-57.2-3.4l-30.3,33.6L824.8,342.9z"/>
		</g>
		<g id="triangle36-2">
			<path class="st0" d="M828.1,341.7l-0.7,1l-70.7,113.1l-21.4-82l0.4-0.1L828.1,341.7z M757.1,453.7L826,343.4l-89.6,31
				L757.1,453.7z"/>
		</g>
		<g id="triangle36-3">
			<path class="st0" d="M886.9,257.4l0.2,0.9l31.8,127.1l-92.5-42.7l0.3-0.4L886.9,257.4z M917.6,383.8l-31.1-124.4l-58.8,82.9
				L917.6,383.8z"/>
		</g>
		<g id="triangle36-4">
			<path class="st0" d="M885.9,257.3l1,0.7l84.5,63.4l-0.3,0.4L918,385.6l-0.2-0.8L885.9,257.3z M970.2,321.6l-82.8-62.1l31,124.2
				L970.2,321.6z"/>
		</g>
		<g id="triangle36-5">
			<polygon class="st0" points="977.4,156.7 978.3,156.7 971.2,323.6 917.8,184.9 918.6,184.6 970.5,319.4 			"/>
		</g>
		<g id="triangle36-6">
			<polygon class="st0" points="918.6,184.6 971.8,322.8 886.4,258.8 886.9,258 969.9,320.2 917.8,184.9 			"/>
		</g>
		<g id="triangle36-7">
			<path class="st0" d="M767,289l0.7,0.6l60.6,53.4l-61.3-3.6V289z M825.8,342l-57.9-51.1v47.7L825.8,342z"/>
		</g>
		<g id="triangle36-8">
			<path class="st0" d="M209.1,384.2h215.8l-0.8,0.8L304.6,504.5l-0.3-0.4L209.1,384.2z M422.8,385.1H210.9l93.8,118.1L422.8,385.1z
				"/>
		</g>
		<g id="triangle36-9">
			<polygon class="st0" points="977.4,156.7 978.3,156.7 971.3,320.4 1093.2,198.5 1093.8,199.1 970.3,322.6 			"/>
		</g>
		<g id="triangle36-10">
			
				<rect x="945.4" y="259.7" transform="matrix(0.7069 -0.7074 0.7074 0.7069 118.5558 806.3742)" class="st0" width="173.5" height="0.9"/>
		</g>
		<g id="triangle36-11">
			<polygon class="st0" points="644.3,247.8 645.2,248 617.3,376.7 686.6,335.2 687.1,335.9 616.1,378.5 616.3,377.5 			"/>
		</g>
		<g id="triangle36-12">
			<polygon class="st0" points="554,237.2 616.5,376.2 644.3,247.8 645.2,248 616.8,379 616.3,377.8 553.2,237.5 			"/>
		</g>
		<g id="triangle36-13">
			<path class="st0" d="M553.6,236.3l0.4,0.9L617.3,378h-0.6l-130.5,7.1l0.3-0.7L553.6,236.3z M616,377.2l-62.5-138.8l-65.9,145.7
				L616,377.2z"/>
		</g>
		<g id="triangle36-14">
			<polygon class="st0" points="553.2,237.2 554,237.5 486.7,386.4 476,237.4 476.9,237.3 487.3,382.9 			"/>
		</g>
		<g id="triangle36-15">
			<path class="st0" d="M476.7,235.2l0.1,2.1l10.5,147.7h-64.2l0.2-0.6L476.7,235.2z M486.5,384.2l-10.3-144.7l-51.7,144.7
				L486.5,384.2z"/>
		</g>
		<g id="triangle36-16">
			<polygon class="st0" points="736.2,373.4 736.3,374 757.4,454.6 756.5,454.9 735.6,374.8 627.4,444.6 627,443.9 			"/>
		</g>
		<g id="triangle36-17">
			<path class="st0" d="M737.5,373.6L626.9,445l-0.1-0.7l-10.6-67.1h0.5L737.5,373.6z M627.5,443.5l106.8-68.9L617.2,378
				L627.5,443.5z"/>
		</g>
		<g id="triangle36-18">
			<path class="st0" d="M202.5,275.2l0.7,0.3l222.6,109.5H209.6v-0.4L202.5,275.2z M422,384.2L203.4,276.7l6.9,107.5L422,384.2z"/>
		</g>
		<g id="triangle36-19">
			<polygon class="st0" points="133.2,58.4 203,274.7 255.2,156.5 256,156.9 202.9,277.2 202.5,276.1 132.4,58.7 			"/>
		</g>
		<g id="triangle36-20">
			<path class="st0" d="M203.2,272.6l0.2,3.3l7,108.9l-36.2,29l0.2-1.2L203.2,272.6z M209.5,384.4l-6.8-105.2l-27.1,132.4
				L209.5,384.4z"/>
		</g>
		<g id="triangle36-21">
			<polygon class="st0" points="616.8,375.6 617.1,377.5 627.6,444.2 626.8,444.3 616.6,379.7 592.6,465.4 591.7,465.2 			"/>
		</g>
		<g id="triangle36-22">
			<polygon class="st0" points="209.7,383.6 210.3,384.4 305,503.6 304.3,504.1 210.3,385.7 196.4,475.8 195.5,475.7 			"/>
		</g>
		<g id="triangle36-23">
			<polygon class="st0" points="210.6,383.6 210.4,384.7 196.4,475.8 195.5,475.7 209.4,385.7 175.2,413 174.6,412.3 			"/>
		</g>
		<g id="triangle36-24">
			<polygon class="st0" points="767,290 767.9,290 767.9,339.4 711.4,346.5 711.3,345.6 767,338.7 			"/>
		</g>
		<g id="triangle36-25">
			<path class="st0" d="M768.6,338.5l-32.7,36.3l-25.4-29L768.6,338.5z M735.9,373.5l30.4-33.8l-54.1,6.8L735.9,373.5z"/>
		</g>
		<g id="triangle36-26">
			<path class="st0" d="M711.5,345.5l25.3,29l-123.1,3.6L711.5,345.5z M735,373.7l-23.7-27.1l-91.6,30.5L735,373.7z"/>
		</g>
		<g id="triangle36-27">
			<polygon class="st0" points="686.6,335.2 687.1,335.9 620.3,375.9 711.2,345.6 711.5,346.5 613,379.3 			"/>
		</g>
		<g id="triangle36-28">
			<path class="st0" d="M971.1,320.5l0.2,1l17.7,113.2l-0.8-0.6l-70.5-49.4l0.3-0.4L971.1,320.5z M987.8,432.8l-17.2-110.3l-51.7,62
				L987.8,432.8z"/>
		</g>
		<g id="triangle36-29">
			<polygon class="st0" points="806.5,230.3 827.3,341.5 886.3,258.2 887,258.7 826.8,343.7 826.6,342.6 805.6,230.4 			"/>
		</g>
		<g id="triangle36-30">
			<polygon class="st0" points="806.5,230.3 827.7,343.7 767.2,290.3 767.8,289.6 826.4,341.4 805.6,230.4 			"/>
		</g>
		<g id="triangle36-32">
			<polygon class="st0" points="617.5,376.4 617.1,377.7 592.6,465.4 591.7,465.2 615.9,378.8 515.3,458.6 514.7,457.9 			"/>
		</g>
		<g id="triangle36-33">
			<path class="st0" d="M618,377.1L514.8,459l-0.2-0.6l-28.3-74.2L618,377.1z M515.2,457.5l100.1-79.4L487.6,385L515.2,457.5z"/>
		</g>
		<g id="triangle36-34">
			<path class="st0" d="M422.6,384.2h64.6l0.1,0.3l28.6,75.1l-1.3-1L422.6,384.2z M486.7,385.1h-61.6l88.9,71.8L486.7,385.1z"/>
		</g>
		<g id="triangle36-35">
			<polygon class="st0" points="423.8,384 424.1,384.3 515.3,457.9 514.7,458.6 423.9,385.2 305,504.2 304.3,503.5 			"/>
		</g>
		<circle class="st0" cx="827.1" cy="342.5" r="5.4"/>
		<circle class="st0" cx="735.9" cy="374.1" r="5.4"/>
		<circle class="st0" cx="767.5" cy="339" r="5.4"/>
		<ellipse class="st0" cx="756.9" cy="454.8" rx="5.4" ry="5.4"/>
		<circle class="st0" cx="827.1" cy="342.5" r="5.4"/>
		<circle class="st0" cx="735.9" cy="374.1" r="5.4"/>
		<ellipse class="st0" cx="756.9" cy="454.8" rx="5.4" ry="5.4"/>
		<circle class="st0" cx="886.7" cy="258.4" r="5.4"/>
		<circle class="st0" cx="918.2" cy="384.6" r="5.4"/>
		<circle class="st0" cx="827.1" cy="342.5" r="5.4"/>
		<circle class="st0" cx="886.7" cy="258.4" r="5.4"/>
		<circle class="st0" cx="886.7" cy="258.4" r="5.4"/>
		<circle class="st0" cx="970.8" cy="321.5" r="5.4"/>
		<circle class="st0" cx="918.2" cy="384.6" r="5.4"/>
		<circle class="st0" cx="886.7" cy="258.4" r="5.4"/>
		<ellipse class="st0" cx="476.4" cy="237.4" rx="5.4" ry="5.4"/>
		<circle class="st0" cx="423.8" cy="384.6" r="5.4"/>
		<circle class="st0" cx="365.3" cy="95.8" r="5.4"/>
		<circle class="st0" cx="918.2" cy="184.8" r="5.4"/>
		<circle class="st0" cx="970.8" cy="321.5" r="5.4"/>
		<circle class="st0" cx="977.8" cy="156.7" r="5.4"/>
		<circle class="st0" cx="886.7" cy="258.4" r="5.4"/>
		<circle class="st0" cx="970.8" cy="321.5" r="5.4"/>
		<circle class="st0" cx="918.2" cy="184.8" r="5.4"/>
		<path class="st0" d="M762.1,290c0-3,2.4-5.4,5.4-5.4c3,0,5.4,2.4,5.4,5.4c0,3-2.4,5.4-5.4,5.4S762.1,292.9,762.1,290
			C762.1,290,762.1,290,762.1,290z"/>
		<circle class="st0" cx="767.5" cy="339" r="5.4"/>
		<circle class="st0" cx="827.1" cy="342.5" r="5.4"/>
		<path class="st0" d="M762.1,290c0-3,2.4-5.4,5.4-5.4c3,0,5.4,2.4,5.4,5.4c0,3-2.4,5.4-5.4,5.4S762.1,292.9,762.1,290
			C762.1,290,762.1,290,762.1,290z"/>
		<circle class="st0" cx="304.6" cy="503.8" r="5.4"/>
		<circle class="st0" cx="423.8" cy="384.6" r="5.4"/>
		<ellipse class="st0" cx="210" cy="384.6" rx="5.4" ry="5.4"/>
		<circle class="st0" cx="304.6" cy="503.8" r="5.4"/>
		<ellipse class="st0" cx="1093.5" cy="198.8" rx="5.4" ry="5.4"/>
		<circle class="st0" cx="970.8" cy="321.5" r="5.4"/>
		<circle class="st0" cx="977.8" cy="156.7" r="5.4"/>
		<circle class="st0" cx="970.8" cy="321.5" r="5.4"/>
		<ellipse class="st0" cx="1093.5" cy="198.8" rx="5.4" ry="5.4"/>
		<path class="st0" d="M1162.3,399.2c0-3,2.4-5.4,5.4-5.4c3,0,5.4,2.4,5.4,5.4c0,3-2.4,5.4-5.4,5.4c0,0,0,0,0,0
			C1164.7,404.6,1162.3,402.1,1162.3,399.2z"/>
		<circle class="st0" cx="970.8" cy="321.5" r="5.4"/>
		<circle class="st0" cx="644.7" cy="247.9" r="5.4"/>
		<circle class="st0" cx="616.7" cy="377.6" r="5.4"/>
		<path class="st0" d="M681.4,335.5c0-3,2.4-5.4,5.4-5.4c3,0,5.4,2.4,5.4,5.4c0,3-2.4,5.4-5.4,5.4
			C683.8,340.9,681.4,338.5,681.4,335.5z"/>
		<circle class="st0" cx="553.6" cy="237.4" r="5.4"/>
		<circle class="st0" cx="616.7" cy="377.6" r="5.4"/>
		<circle class="st0" cx="644.7" cy="247.9" r="5.4"/>
		<circle class="st0" cx="553.6" cy="237.4" r="5.4"/>
		<circle class="st0" cx="616.7" cy="377.6" r="5.4"/>
		<ellipse class="st0" cx="487" cy="384.6" rx="5.4" ry="5.4"/>
		<circle class="st0" cx="553.6" cy="237.4" r="5.4"/>
		<circle class="st0" cx="553.6" cy="237.4" r="5.4"/>
		<ellipse class="st0" cx="487" cy="384.6" rx="5.4" ry="5.4"/>
		<ellipse class="st0" cx="476.4" cy="237.4" rx="5.4" ry="5.4"/>
		<ellipse class="st0" cx="476.4" cy="237.4" rx="5.4" ry="5.4"/>
		<ellipse class="st0" cx="487" cy="384.6" rx="5.4" ry="5.4"/>
		<circle class="st0" cx="423.8" cy="384.6" r="5.4"/>
		<ellipse class="st0" cx="476.4" cy="237.4" rx="5.4" ry="5.4"/>
		<circle class="st0" cx="627.2" cy="444.2" r="5.4"/>
		<circle class="st0" cx="735.9" cy="374.1" r="5.4"/>
		<ellipse class="st0" cx="756.9" cy="454.8" rx="5.4" ry="5.4"/>
		<circle class="st0" cx="627.2" cy="444.2" r="5.4"/>
		<circle class="st0" cx="616.7" cy="377.6" r="5.4"/>
		<circle class="st0" cx="735.9" cy="374.1" r="5.4"/>
		<circle class="st0" cx="627.2" cy="444.2" r="5.4"/>
		<circle class="st0" cx="174.9" cy="412.7" r="5.4"/>
		<circle class="st0" cx="373.3" cy="201.8" r="5.4"/>
		<circle class="st0" cx="423.8" cy="384.6" r="5.4"/>
		<circle class="st0" cx="203" cy="275.9" r="5.4"/>
		<circle class="st0" cx="203" cy="275.9" r="5.4"/>
		<ellipse class="st0" cx="210" cy="384.6" rx="5.4" ry="5.4"/>
		<circle class="st0" cx="423.8" cy="384.6" r="5.4"/>
		<circle class="st0" cx="441.3" cy="82.8" r="5.4"/>
		<circle class="st0" cx="203" cy="275.9" r="5.4"/>
		<circle class="st0" cx="255.6" cy="156.7" r="5.4"/>
		<circle class="st0" cx="255.6" cy="156.7" r="5.4"/>
		<circle class="st0" cx="203" cy="275.9" r="5.4"/>
		<circle class="st0" cx="132.8" cy="58.5" r="5.4"/>
		<circle class="st0" cx="174.9" cy="412.7" r="5.4"/>
		<ellipse class="st0" cx="210" cy="384.6" rx="5.4" ry="5.4"/>
		<circle class="st0" cx="203" cy="275.9" r="5.4"/>
		<circle class="st0" cx="174.9" cy="412.7" r="5.4"/>
		<circle class="st0" cx="174.9" cy="412.7" r="5.4"/>
		<circle class="st0" cx="203" cy="275.9" r="5.4"/>
		<circle class="st0" cx="174.9" cy="412.7" r="5.4"/>
		<circle class="st0" cx="132.8" cy="58.5" r="5.4"/>
		<circle class="st0" cx="203" cy="275.9" r="5.4"/>
		<circle class="st0" cx="203" cy="275.9" r="5.4"/>
		<path class="st0" d="M586.7,465.3c0-3,2.4-5.4,5.4-5.4c3,0,5.4,2.4,5.4,5.4c0,3-2.4,5.4-5.4,5.4c0,0,0,0,0,0
			C589.2,470.7,586.7,468.3,586.7,465.3z"/>
		<circle class="st0" cx="616.7" cy="377.6" r="5.4"/>
		<circle class="st0" cx="627.2" cy="444.2" r="5.4"/>
		<path class="st0" d="M190.5,475.8c0-3,2.4-5.4,5.4-5.4s5.4,2.4,5.4,5.4s-2.4,5.4-5.4,5.4c0,0,0,0,0,0
			C193,481.2,190.5,478.8,190.5,475.8z"/>
		<ellipse class="st0" cx="210" cy="384.6" rx="5.4" ry="5.4"/>
		<circle class="st0" cx="304.6" cy="503.8" r="5.4"/>
		<circle class="st0" cx="174.9" cy="412.7" r="5.4"/>
		<ellipse class="st0" cx="210" cy="384.6" rx="5.4" ry="5.4"/>
		<path class="st0" d="M190.5,475.8c0-3,2.4-5.4,5.4-5.4s5.4,2.4,5.4,5.4s-2.4,5.4-5.4,5.4c0,0,0,0,0,0
			C193,481.2,190.5,478.8,190.5,475.8z"/>
		<path class="st0" d="M762.1,290c0-3,2.4-5.4,5.4-5.4c3,0,5.4,2.4,5.4,5.4c0,3-2.4,5.4-5.4,5.4S762.1,292.9,762.1,290
			C762.1,290,762.1,290,762.1,290z"/>
		<circle class="st0" cx="767.5" cy="339" r="5.4"/>
		<path class="st0" d="M705.9,346.1c0-3,2.4-5.4,5.4-5.4c3,0,5.4,2.4,5.4,5.4c0,3-2.4,5.4-5.4,5.4c0,0,0,0,0,0
			C708.4,351.5,706,349,705.9,346.1z"/>
		<path class="st0" d="M705.9,346.1c0-3,2.4-5.4,5.4-5.4c3,0,5.4,2.4,5.4,5.4c0,3-2.4,5.4-5.4,5.4c0,0,0,0,0,0
			C708.4,351.5,706,349,705.9,346.1z"/>
		<circle class="st0" cx="735.9" cy="374.1" r="5.4"/>
		<circle class="st0" cx="767.5" cy="339" r="5.4"/>
		<path class="st0" d="M705.9,346.1c0-3,2.4-5.4,5.4-5.4c3,0,5.4,2.4,5.4,5.4c0,3-2.4,5.4-5.4,5.4c0,0,0,0,0,0
			C708.4,351.5,706,349,705.9,346.1z"/>
		<path class="st0" d="M705.9,346.1c0-3,2.4-5.4,5.4-5.4c3,0,5.4,2.4,5.4,5.4c0,3-2.4,5.4-5.4,5.4c0,0,0,0,0,0
			C708.4,351.5,706,349,705.9,346.1z"/>
		<circle class="st0" cx="616.7" cy="377.6" r="5.4"/>
		<circle class="st0" cx="735.9" cy="374.1" r="5.4"/>
		<path class="st0" d="M705.9,346.1c0-3,2.4-5.4,5.4-5.4c3,0,5.4,2.4,5.4,5.4c0,3-2.4,5.4-5.4,5.4c0,0,0,0,0,0
			C708.4,351.5,706,349,705.9,346.1z"/>
		<path class="st0" d="M705.9,346.1c0-3,2.4-5.4,5.4-5.4c3,0,5.4,2.4,5.4,5.4c0,3-2.4,5.4-5.4,5.4c0,0,0,0,0,0
			C708.4,351.5,706,349,705.9,346.1z"/>
		<circle class="st0" cx="616.7" cy="377.6" r="5.4"/>
		<path class="st0" d="M681.4,335.5c0-3,2.4-5.4,5.4-5.4c3,0,5.4,2.4,5.4,5.4c0,3-2.4,5.4-5.4,5.4
			C683.8,340.9,681.4,338.5,681.4,335.5z"/>
		<path class="st0" d="M982.9,433.7c0-3,2.4-5.4,5.4-5.4c3,0,5.4,2.4,5.4,5.4s-2.4,5.4-5.4,5.4l0,0
			C985.4,439.1,982.9,436.7,982.9,433.7z"/>
		<path class="st0" d="M982.9,433.7c0-3,2.4-5.4,5.4-5.4c3,0,5.4,2.4,5.4,5.4s-2.4,5.4-5.4,5.4l0,0
			C985.4,439.1,982.9,436.7,982.9,433.7z"/>
		<circle class="st0" cx="970.8" cy="321.5" r="5.4"/>
		<path class="st0" d="M982.9,433.7c0-3,2.4-5.4,5.4-5.4c3,0,5.4,2.4,5.4,5.4s-2.4,5.4-5.4,5.4l0,0
			C985.4,439.1,982.9,436.7,982.9,433.7z"/>
		<circle class="st0" cx="918.2" cy="384.6" r="5.4"/>
		<circle class="st0" cx="970.8" cy="321.5" r="5.4"/>
		<circle class="st0" cx="806" cy="230.3" r="5.4"/>
		<circle class="st0" cx="827.1" cy="342.5" r="5.4"/>
		<circle class="st0" cx="886.7" cy="258.4" r="5.4"/>
		<path class="st0" d="M762.1,290c0-3,2.4-5.4,5.4-5.4c3,0,5.4,2.4,5.4,5.4c0,3-2.4,5.4-5.4,5.4S762.1,292.9,762.1,290
			C762.1,290,762.1,290,762.1,290z"/>
		<circle class="st0" cx="827.1" cy="342.5" r="5.4"/>
		<circle class="st0" cx="806" cy="230.3" r="5.4"/>
		<circle class="st0" cx="827.1" cy="342.5" r="5.4"/>
		<circle class="st0" cx="918.2" cy="384.6" r="5.4"/>
		<ellipse class="st0" cx="756.9" cy="454.8" rx="5.4" ry="5.4"/>
		<circle class="st0" cx="827.1" cy="342.5" r="5.4"/>
		<path class="st0" d="M982.9,433.7c0-3,2.4-5.4,5.4-5.4c3,0,5.4,2.4,5.4,5.4s-2.4,5.4-5.4,5.4l0,0
			C985.4,439.1,982.9,436.7,982.9,433.7z"/>
		<circle class="st0" cx="918.2" cy="384.6" r="5.4"/>
		<path class="st0" d="M982.9,433.7c0-3,2.4-5.4,5.4-5.4c3,0,5.4,2.4,5.4,5.4s-2.4,5.4-5.4,5.4l0,0
			C985.4,439.1,982.9,436.7,982.9,433.7z"/>
		<path class="st0" d="M586.7,465.3c0-3,2.4-5.4,5.4-5.4c3,0,5.4,2.4,5.4,5.4c0,3-2.4,5.4-5.4,5.4c0,0,0,0,0,0
			C589.2,470.7,586.7,468.3,586.7,465.3z"/>
		<circle class="st0" cx="616.7" cy="377.6" r="5.4"/>
		<circle class="st0" cx="515" cy="458.3" r="5.4"/>
		<circle class="st0" cx="515" cy="458.3" r="5.4"/>
		<ellipse class="st0" cx="487" cy="384.6" rx="5.4" ry="5.4"/>
		<circle class="st0" cx="616.7" cy="377.6" r="5.4"/>
		<circle class="st0" cx="515" cy="458.3" r="5.4"/>
		<circle class="st0" cx="515" cy="458.3" r="5.4"/>
		<circle class="st0" cx="423.8" cy="384.6" r="5.4"/>
		<ellipse class="st0" cx="487" cy="384.6" rx="5.4" ry="5.4"/>
		<circle class="st0" cx="515" cy="458.3" r="5.4"/>
		<circle class="st0" cx="304.6" cy="503.8" r="5.4"/>
		<circle class="st0" cx="423.8" cy="384.6" r="5.4"/>
		<circle class="st0" cx="515" cy="458.3" r="5.4"/>
		<line class="st1" x1="989.6" y1="435" x2="1033.6" y2="596"/>
		<line class="st1" x1="967.1" y1="321.5" x2="1168.6" y2="399"/>
		<line class="st1" x1="989.1" y1="433.5" x2="1044.6" y2="494"/>
		<line class="st1" x1="825.1" y1="341.5" x2="870.6" y2="433"/>
		<line class="st1" x1="201.1" y1="275.5" x2="373.1" y2="203.5"/>
		<line class="st1" x1="442.6" y1="84" x2="372.6" y2="203"/>
		<line class="st1" x1="373.1" y1="203.5" x2="364.6" y2="97"/>
		<line class="st1" x1="199.1" y1="274.5" x2="52.1" y2="184.5"/>
		<line class="st1" x1="201.6" y1="275" x2="53.6" y2="339"/>
	</g>
</g>
</svg>
