<?xml version="1.0" encoding="utf-8"?>
<!-- Generator: Adobe Illustrator 21.0.2, SVG Export Plug-In . SVG Version: 6.00 Build 0)  -->
<svg version="1.1" id="Capa_1" xmlns="http://www.w3.org/2000/svg" xmlns:xlink="http://www.w3.org/1999/xlink" x="0px" y="0px"
	 viewBox="0 0 368 416" style="enable-background:new 0 0 368 416;" xml:space="preserve">
<style type="text/css">
	.st0{fill:#C1272D;}
	.st1{fill:none;stroke:#C1272D;stroke-miterlimit:10;}
</style>
<title>MIX_Grafic2_Web</title>
<g>
	<g id="Capa_1_1_">
		<g id="triangle36-36">
			<path class="st0" d="M91.2,117.9l0.3,0.2l152.6,78.1l-2-0.1L34.3,185.5L91.2,117.9z M240.1,195L91.5,119l-55.4,65.6L240.1,195z"
				/>
		</g>
		<g id="triangle36-37">
			<polygon class="st0" points="53.2,48.1 92.5,119.6 91.1,118.8 31.5,83.8 32,83 90.2,117.2 52.4,48.5 			"/>
		</g>
		<g id="triangle36-38">
			<polygon class="st0" points="32,83 92,118.3 91.7,118.7 35.6,185.3 34.9,184.8 90.7,118.5 31.5,83.8 			"/>
		</g>
		<g id="triangle36-39">
			<polygon class="st0" points="242.6,193.4 239,377.9 238.2,377.9 241.6,197.7 158.4,385.1 157.6,384.7 			"/>
		</g>
		<g id="triangle36-40">
			<path class="st0" d="M165.1,33.5l0.3,0.6l77.7,162.5l-152.4-78L165.1,33.5z M241.1,194.6L164.9,35.1L92,118.3L241.1,194.6z"/>
		</g>
		<g id="triangle36-41">
			<polygon class="st0" points="164.6,34 165.3,34.6 91.3,119.2 91,118.7 52.4,48.5 53.2,48.1 91.4,117.7 			"/>
		</g>
		<g id="triangle36-42">
			<polygon class="st0" points="243.1,194.3 242.5,195.8 158.4,385.1 157.6,384.7 241.1,196.8 81.1,308.1 80.6,307.4 			"/>
		</g>
		<g id="triangle36-43">
			<polygon class="st0" points="35.3,184.6 243.4,195.2 242.4,195.9 81.1,308.1 80.6,307.4 240.8,196 35.2,185.5 			"/>
		</g>
		<circle class="st0" cx="35.2" cy="185.1" r="5.4"/>
		<circle class="st0" cx="242.1" cy="195.6" r="5.4"/>
		<path class="st0" d="M85.9,118.4c0-3,2.4-5.4,5.4-5.4c3,0,5.4,2.4,5.4,5.4c0,3-2.4,5.4-5.4,5.4S85.9,121.4,85.9,118.4L85.9,118.4z
			"/>
		<circle class="st0" cx="35.2" cy="185.1" r="5.4"/>
		<circle class="st0" cx="52.8" cy="48.3" r="5.4"/>
		<path class="st0" d="M85.9,118.4c0-3,2.4-5.4,5.4-5.4c3,0,5.4,2.4,5.4,5.4c0,3-2.4,5.4-5.4,5.4S85.9,121.4,85.9,118.4L85.9,118.4z
			"/>
		<path class="st0" d="M26.3,83.4c0-3,2.4-5.4,5.4-5.4c3,0,5.4,2.4,5.4,5.4c0,3-2.4,5.4-5.4,5.4c0,0,0,0,0,0
			C28.7,88.8,26.3,86.4,26.3,83.4z"/>
		<circle class="st0" cx="35.2" cy="185.1" r="5.4"/>
		<path class="st0" d="M85.9,118.4c0-3,2.4-5.4,5.4-5.4c3,0,5.4,2.4,5.4,5.4c0,3-2.4,5.4-5.4,5.4S85.9,121.4,85.9,118.4L85.9,118.4z
			"/>
		<path class="st0" d="M26.3,83.4c0-3,2.4-5.4,5.4-5.4c3,0,5.4,2.4,5.4,5.4c0,3-2.4,5.4-5.4,5.4c0,0,0,0,0,0
			C28.7,88.8,26.3,86.4,26.3,83.4z"/>
		<circle class="st0" cx="238.6" cy="377.9" r="5.4"/>
		<circle class="st0" cx="242.1" cy="195.6" r="5.4"/>
		<circle class="st0" cx="158" cy="384.9" r="5.4"/>
		<circle class="st0" cx="242.1" cy="195.6" r="5.4"/>
		<circle class="st0" cx="238.6" cy="377.9" r="5.4"/>
		<circle class="st0" cx="242.1" cy="195.6" r="5.4"/>
		<circle class="st0" cx="165" cy="34.3" r="5.4"/>
		<circle class="st0" cx="165" cy="34.3" r="5.4"/>
		<circle class="st0" cx="242.1" cy="195.6" r="5.4"/>
		<circle class="st0" cx="165" cy="34.3" r="5.4"/>
		<circle class="st0" cx="165" cy="34.3" r="5.4"/>
		<path class="st0" d="M85.9,118.4c0-3,2.4-5.4,5.4-5.4c3,0,5.4,2.4,5.4,5.4c0,3-2.4,5.4-5.4,5.4S85.9,121.4,85.9,118.4L85.9,118.4z
			"/>
		<circle class="st0" cx="242.1" cy="195.6" r="5.4"/>
		<circle class="st0" cx="165" cy="34.3" r="5.4"/>
		<circle class="st0" cx="52.8" cy="48.3" r="5.4"/>
		<path class="st0" d="M85.9,118.4c0-3,2.4-5.4,5.4-5.4c3,0,5.4,2.4,5.4,5.4c0,3-2.4,5.4-5.4,5.4S85.9,121.4,85.9,118.4L85.9,118.4z
			"/>
		<circle class="st0" cx="165" cy="34.3" r="5.4"/>
		<circle class="st0" cx="158" cy="384.9" r="5.4"/>
		<circle class="st0" cx="242.1" cy="195.6" r="5.4"/>
		<circle class="st0" cx="80.8" cy="307.8" r="5.4"/>
		<circle class="st0" cx="35.2" cy="185.1" r="5.4"/>
		<circle class="st0" cx="242.1" cy="195.6" r="5.4"/>
		<circle class="st0" cx="80.8" cy="307.8" r="5.4"/>
		<line class="st1" x1="242.1" y1="195.5" x2="344.1" y2="112.5"/>
		<line class="st1" x1="343.6" y1="311" x2="240.6" y2="198"/>
	</g>
</g>
</svg>
