<?xml version="1.0" encoding="utf-8"?>
<!-- Generator: Adobe Illustrator 21.0.2, SVG Export Plug-In . SVG Version: 6.00 Build 0)  -->
<svg version="1.1" id="Capa_1" xmlns="http://www.w3.org/2000/svg" xmlns:xlink="http://www.w3.org/1999/xlink" x="0px" y="0px"
	 viewBox="0 0 486 252" style="enable-background:new 0 0 486 252;" xml:space="preserve">
<style type="text/css">
	.st0{fill:#C1272D;}
</style>
<title>MIX_404tipo</title>
<g>
	<g id="Capa_1_1_">
		<path class="st0" d="M135.6,153.3h27.2v20.4h-27.2v45.6h-25.1v-45.6H21.2v-14.7l87.9-136h26.6V153.3z M49.5,153.3h61.1V57l-3,5.4
			L49.5,153.3z"/>
		<path class="st0" d="M308.4,135.5c0,29.2-5,50.9-15,65.1c-10,14.2-25.6,21.3-46.8,21.3c-20.9,0-36.4-6.9-46.5-20.8
			c-10.1-13.9-15.3-34.6-15.6-62.2v-33.4c0-28.8,5-50.3,15-64.3c10-14,25.6-21,46.9-21c21.1,0,36.7,6.8,46.6,20.3
			s15.1,34.4,15.4,62.6L308.4,135.5z M283.5,101.4c0-21.1-3-36.5-8.9-46.2s-15.3-14.5-28.2-14.5c-12.8,0-22.1,4.8-27.9,14.4
			s-8.8,24.4-9,44.3v39.9c0,21.2,3.1,36.9,9.2,47c6.2,10.1,15.5,15.2,28,15.2c12.3,0,21.5-4.8,27.4-14.3c6-9.5,9.1-24.5,9.4-45
			L283.5,101.4z"/>
		<path class="st0" d="M445.7,153.3h27.2v20.4h-27.2v45.6h-25.1v-45.6h-89.3v-14.7l87.9-136h26.5V153.3z M359.5,153.3h61.1V57
			l-3,5.4L359.5,153.3z"/>
	</g>
</g>
</svg>
