<svg id="Capa_1" data-name="Capa 1" xmlns="http://www.w3.org/2000/svg" viewBox="0 0 21.2 21.2"><defs><style>.cls-1{fill:#3e81ba;}.cls-2{fill:#319f4f;}.cls-3{fill:#f5bc0f;}.cls-4{fill:#e84335;}.cls-5{fill:none;}</style></defs><title>MIXICON_Google_Imag</title><g id="Google-Button"><g id="btn_google_light_normal" data-name="btn google light normal"><g id="logo_googleg_48dp" data-name="logo googleg 48dp"><path id="Shape" class="cls-1" d="M21,11.16A12.18,12.18,0,0,0,20.85,9h-10v4.1h5.7a4.88,4.88,0,0,1-2.12,3.2V19h3.43A10.34,10.34,0,0,0,21,11.16Z" transform="translate(-0.27 -0.32)"/><path id="Shape-2" data-name="Shape" class="cls-2" d="M10.87,21.52a10.12,10.12,0,0,0,7-2.57L14.46,16.3a6.39,6.39,0,0,1-9.52-3.36H1.4v2.75a10.6,10.6,0,0,0,9.47,5.84Z" transform="translate(-0.27 -0.32)"/><path id="Shape-3" data-name="Shape" class="cls-3" d="M4.94,12.94a6.27,6.27,0,0,1,0-4V6.16H1.4a10.61,10.61,0,0,0,0,9.52l3.54-2.75Z" transform="translate(-0.27 -0.32)"/><path id="Shape-4" data-name="Shape" class="cls-4" d="M10.87,4.54a5.73,5.73,0,0,1,4.05,1.59l3-3A10.19,10.19,0,0,0,10.87.32,10.6,10.6,0,0,0,1.4,6.16L4.94,8.91a6.32,6.32,0,0,1,5.93-4.37Z" transform="translate(-0.27 -0.32)"/><path id="Shape-5" data-name="Shape" class="cls-5" d="M.27.32h21.2v21.2H.27Z" transform="translate(-0.27 -0.32)"/></g></g></g></svg>