<svg id="Capa_1" data-name="Capa 1" xmlns="http://www.w3.org/2000/svg" viewBox="0 0 21.65 21.65"><defs><style>.cls-1{fill:#bf1031;}.cls-2{fill:#f2f2f2;}</style></defs><title>MIXICON_Mix_Imag</title><circle class="cls-1" cx="10.82" cy="10.82" r="10.82"/><path class="cls-2" d="M15.29,15.49V9.82q0-2.11-1.83-2.11a1.83,1.83,0,0,0-1.08.36,1.87,1.87,0,0,0-.69.81v6.62H10.11V9.13a1.24,1.24,0,0,0-.5-1,2.11,2.11,0,0,0-1.32-.38,1.83,1.83,0,0,0-1,.37,2.25,2.25,0,0,0-.76.81v6.6H4.92v-9H6l.53,1a2.79,2.79,0,0,1,2.3-1.2,3,3,0,0,1,2.69,1.2,2.05,2.05,0,0,1,1-.85A3.47,3.47,0,0,1,14,6.37a2.78,2.78,0,0,1,2.15.82,3.28,3.28,0,0,1,.76,2.31v6Z" transform="translate(-0.07 -0.11)"/></svg>