<?xml version="1.0" encoding="utf-8"?>
<!-- Generator: Adobe Illustrator 21.0.2, SVG Export Plug-In . SVG Version: 6.00 Build 0)  -->
<svg version="1.1" baseProfile="basic" id="Capa_1" xmlns="http://www.w3.org/2000/svg" xmlns:xlink="http://www.w3.org/1999/xlink"
	 x="0px" y="0px" viewBox="0 0 29 29.2" xml:space="preserve">
<path fill="#BF1031" d="M20.6,19.1c-0.9,0-1.8,0.4-2.4,1l-8.4-4.8c0.1-0.2,0.1-0.5,0.1-0.7c0-0.2,0-0.4-0.1-0.6l8.4-4.8
	c0.6,0.6,1.4,1,2.3,1c1.8,0,3.3-1.5,3.3-3.3s-1.5-3.3-3.3-3.3c-1.8,0-3.3,1.5-3.3,3.3c0,0.2,0,0.3,0,0.5l-8.5,4.9
	c-0.6-0.5-1.4-0.9-2.2-0.9c-1.8,0-3.3,1.5-3.3,3.3s1.5,3.3,3.3,3.3c0.8,0,1.6-0.3,2.2-0.8l8.5,4.9c0,0.1,0,0.3,0,0.4
	c0,1.8,1.5,3.3,3.3,3.3c1.8,0,3.3-1.5,3.3-3.3C23.9,20.5,22.4,19.1,20.6,19.1z"/>
</svg>
