<?xml version="1.0" encoding="utf-8"?>
<!-- Generator: Adobe Illustrator 21.0.2, SVG Export Plug-In . SVG Version: 6.00 Build 0)  -->
<svg version="1.1" baseProfile="basic" id="Capa_1" xmlns="http://www.w3.org/2000/svg" xmlns:xlink="http://www.w3.org/1999/xlink"
	 x="0px" y="0px" viewBox="0 0 18.1 20.8" xml:space="preserve">
<path fill="#BF1031" d="M17.5,9.6c-0.4-0.3-1.8-0.9-2.9-1.1c-1.4-0.2-3.2,0-3.2,0l0,0L7.2,3.3l0,0c0,0,0.1-0.6,0.2-1
	c0-0.3,0-0.8-0.1-1.2C7.1,0.8,7,0.6,6.8,0.4C6.7,0.3,6.4,0.5,6.4,0.5l-3,2l0,0l-3,2c0,0-0.3,0.2-0.2,0.3C0.3,5,0.5,5.2,0.8,5.4
	s0.7,0.5,1,0.6c0.3,0.1,0.9,0.2,1,0.2l0,0L6.1,12l0,0c0,0-0.9,1.6-1.3,2.9C4.6,16,4.6,17.5,4.7,18c0.1,0.5,0.4,0.4,0.7,0.2l5.4-3.6
	l0,0l4.4,5.8l0.4-0.3l-3.7-6.2l0,0l5.4-3.6C17.7,10.1,17.9,9.9,17.5,9.6z"/>
</svg>
