<?xml version="1.0" encoding="utf-8"?>
<!-- Generator: Adobe Illustrator 21.0.2, SVG Export Plug-In . SVG Version: 6.00 Build 0)  -->
<svg version="1.1" baseProfile="basic" id="Capa_1" xmlns="http://www.w3.org/2000/svg" xmlns:xlink="http://www.w3.org/1999/xlink"
	 x="0px" y="0px" viewBox="0 0 29 29.2" xml:space="preserve">
<g>
	<path fill="#BF1031" d="M25.9,19.2c-0.3,1.1-1.4,1.9-2.5,1.9H11.8c-1.1,0-2.2-0.9-2.5-1.9l-2.4-9.1C6.6,9,7.3,8.2,8.4,8.2h18.4
		c1.1,0,1.8,0.9,1.5,1.9L25.9,19.2z"/>
	<ellipse fill="#BF1031" cx="13.1" cy="25.1" rx="2.7" ry="2.7"/>
	<ellipse fill="#BF1031" cx="21.9" cy="25.1" rx="2.7" ry="2.7"/>
	<path fill="#BF1031" d="M9.6,7.8C9.3,7.3,9,6.5,8.8,6L7.7,2.7C7.5,2.2,6.9,1.8,6.3,1.8H1.8c-0.6,0-1,0.4-1,1V4c0,0.6,0.4,1,1,1h2
		c0.6,0,1.1,0.4,1.3,1l1.2,3.6c0.2,0.5,0.5,1.4,0.7,1.9l0.6,1.5c0.2,0.5,0.7,0.6,1,0.2l1.7-1.9c0.4-0.4,0.5-1.2,0.2-1.6L9.6,7.8z"/>
</g>
</svg>
