<?xml version="1.0" encoding="utf-8"?>
<!-- Generator: Adobe Illustrator 21.0.2, SVG Export Plug-In . SVG Version: 6.00 Build 0)  -->
<svg version="1.1" baseProfile="basic" id="Capa_1" xmlns="http://www.w3.org/2000/svg" xmlns:xlink="http://www.w3.org/1999/xlink"
	 x="0px" y="0px" viewBox="0 0 18.7 18.7" xml:space="preserve">
<path fill="#342F30" d="M9.5,0.5L9.5,0.5C4.8,0.4,3,4.9,3.6,8.2c0.8,4.1,5.9,10.3,5.9,10.3l0,0l0,0c0,0,5.1-6.2,5.9-10.3
	C16,4.9,14.2,0.4,9.5,0.5z M9.5,9C8.2,9,7.1,7.9,7.1,6.6c0-1.4,1.1-2.5,2.4-2.5c1.3,0,2.4,1.1,2.4,2.5C11.9,7.9,10.9,9,9.5,9z"/>
</svg>
