<svg id="mix-icon-assistants1_red" xmlns="http://www.w3.org/2000/svg" viewBox="0 0 34.67 27.04"><defs><style>.cls-1{fill:#bf1031;stroke:#f2f2f2;stroke-miterlimit:10;stroke-width:0.5px;}</style></defs><title>mix-icon-assistants1_red</title><path class="cls-1" d="M16.22,20.06a3.74,3.74,0,0,0-3.46-4H7.24a3.74,3.74,0,0,0-3.46,4v7.62A21.06,21.06,0,0,0,10,29a22.63,22.63,0,0,0,6.25-1.29Z" transform="translate(-3.53 -7.95)"/><ellipse class="cls-1" cx="6.47" cy="4.19" rx="3.98" ry="3.94"/><path class="cls-1" d="M27.09,20.06a3.74,3.74,0,0,0-3.46-4H18.11a3.74,3.74,0,0,0-3.46,4v7.62A21.06,21.06,0,0,0,20.83,29a22.63,22.63,0,0,0,6.25-1.29Z" transform="translate(-3.53 -7.95)"/><ellipse class="cls-1" cx="17.34" cy="4.19" rx="3.98" ry="3.94"/><path class="cls-1" d="M38,20.06a3.74,3.74,0,0,0-3.46-4H29a3.74,3.74,0,0,0-3.46,4v7.62A21.06,21.06,0,0,0,31.7,29,22.63,22.63,0,0,0,38,27.68Z" transform="translate(-3.53 -7.95)"/><ellipse class="cls-1" cx="28.21" cy="4.19" rx="3.98" ry="3.94"/><path class="cls-1" d="M21.65,23a3.74,3.74,0,0,0-3.46-4H12.67a3.74,3.74,0,0,0-3.46,4v7.62A21.06,21.06,0,0,0,15.4,32a22.63,22.63,0,0,0,6.25-1.29Z" transform="translate(-3.53 -7.95)"/><ellipse class="cls-1" cx="11.9" cy="7.18" rx="3.98" ry="3.94"/><path class="cls-1" d="M32.52,23a3.74,3.74,0,0,0-3.46-4H23.54a3.74,3.74,0,0,0-3.46,4v7.62A21.06,21.06,0,0,0,26.27,32a22.63,22.63,0,0,0,6.25-1.29Z" transform="translate(-3.53 -7.95)"/><ellipse class="cls-1" cx="22.77" cy="7.18" rx="3.98" ry="3.94"/><path class="cls-1" d="M27.09,25.83a3.74,3.74,0,0,0-3.46-4H18.11a3.74,3.74,0,0,0-3.46,4v7.62a21.06,21.06,0,0,0,6.18,1.29,22.63,22.63,0,0,0,6.25-1.29Z" transform="translate(-3.53 -7.95)"/><ellipse class="cls-1" cx="17.34" cy="9.96" rx="3.98" ry="3.94"/></svg>