<svg id="mix-icon-facebmsn_grey" xmlns="http://www.w3.org/2000/svg" viewBox="0 0 31.95 33.35"><defs><style>.cls-1{fill:#4286F7;}</style></defs><title>mix-icon-facebmsn_grey</title><path class="cls-1" d="M20.71,3.9c-8.63-.18-15.78,7-16,16a15.57,15.57,0,0,0,5.2,11.76l-.58,5a.61.61,0,0,0,.63.65,2,2,0,0,0,.63-.21l4.18-2.33a15.88,15.88,0,0,0,5.92,1.13c8.63.18,15.78-7,16-16C36.49,10.87,29.34,3.73,20.71,3.9ZM31.22,17.32l-7.64,7.41a.8.8,0,0,1-1,0l-4.71-3.32-6.95,2.85a.66.66,0,0,1-.72-1.08l8-7.51a.49.49,0,0,1,.75,0l4.59,3.25,7-2.67a.66.66,0,0,1,.73,1.08Z" transform="translate(-4.74 -3.9)"/></svg>