<svg id="mix-icon-shoppingcart_grey" xmlns="http://www.w3.org/2000/svg" viewBox="0 0 31.92 30.55"><defs><style>.cls-1{fill:#bf1031;}</style></defs><title>mix-icon-shoppingcart_grey</title><path class="cls-1" d="M33.42,26.31a2.73,2.73,0,0,1-2.5,1.94h-14a2.73,2.73,0,0,1-2.5-1.94l-3-11.39A1.47,1.47,0,0,1,13,13H34.89a1.47,1.47,0,0,1,1.5,1.94Z" transform="translate(-4.53 -5.47)"/><circle class="cls-1" cx="14.17" cy="27.41" r="3.14"/><circle class="cls-1" cx="24.42" cy="27.41" r="3.14"/><path class="cls-1" d="M14.6,12.43a18.37,18.37,0,0,1-.77-1.84L12.38,6.41a1.5,1.5,0,0,0-1.33-.95H5.53a1,1,0,0,0-1,1V8.23a1,1,0,0,0,1,1h2.6a1.47,1.47,0,0,1,1.31,1l1.48,4.58c.17.52.47,1.37.67,1.88l.83,2.11a.56.56,0,0,0,1,.18l2.14-2.46a1.62,1.62,0,0,0,.21-1.65Z" transform="translate(-4.53 -5.47)"/></svg>