<svg id="mix-icon-whatsup_grey" xmlns="http://www.w3.org/2000/svg" viewBox="0 0 33.95 35.35"><defs><style>.cls-1{fill:none;stroke:#1BD741;stroke-miterlimit:10;stroke-width:2px;}.cls-2{fill:#1BD741;}</style></defs><title>mix-icon-whatsup_grey</title><path class="cls-1" d="M20.68,3c-8.63-.18-15.78,7-16,16a15.57,15.57,0,0,0,5.2,11.76l-.58,5a.61.61,0,0,0,.63.65,2,2,0,0,0,.63-.21l4.18-2.33A15.87,15.87,0,0,0,20.68,35c8.63.18,15.78-7,16-16C36.46,10,29.32,2.83,20.68,3Z" transform="translate(-3.71 -2)"/><path class="cls-2" d="M26.23,21.13a13.22,13.22,0,0,1,2.43,1c.41.24,1.09.63,1.25,1.27A2,2,0,0,1,29.53,25a4.61,4.61,0,0,1-2.66,2,5.26,5.26,0,0,1-1.53.18,7.08,7.08,0,0,1-1.76-.28A15.76,15.76,0,0,1,17,23.25a15.08,15.08,0,0,1-4.85-7.14,4.79,4.79,0,0,1,1.56-4.94,2.57,2.57,0,0,1,1-.55,1.44,1.44,0,0,1,1.56.52A14,14,0,0,1,18,13.78c.55,1.08,0,1.58-.54,2.06l0,0-1.15.9a.41.41,0,0,0-.09.55,19,19,0,0,0,6.87,6,.41.41,0,0,0,.3,0h0a.41.41,0,0,0,.24-.23,7.74,7.74,0,0,1,.48-1,2.24,2.24,0,0,1,1.22-1.12,1.27,1.27,0,0,1,.37,0,2.43,2.43,0,0,1,.57.13Z" transform="translate(-3.71 -2)"/></svg>