<svg id="mix-icon-link_grey" xmlns="http://www.w3.org/2000/svg" viewBox="0 0 25.33 25.42"><defs><style>.cls-1{fill:#ED5938;}</style></defs><title>mix-icon-link_grey</title><path class="cls-1" d="M7.57,27.38A6.34,6.34,0,0,0,9.4,30.65a6.42,6.42,0,0,0,6.33,1.72,5,5,0,0,0,1.65-.79,30.27,30.27,0,0,0,3.12-2.86,30.32,30.32,0,0,0,2.84-3.11,5.1,5.1,0,0,0,.51-.86q.15-.38.3-.81a6.08,6.08,0,0,0,.07-3.06,6.37,6.37,0,0,0-1.79-3.26,1.38,1.38,0,0,0-1.94,1.94A4.34,4.34,0,0,1,21.38,21a3.22,3.22,0,0,1,.17,1.45A3,3,0,0,1,21,24.07a21.16,21.16,0,0,1-2.42,2.7,21.65,21.65,0,0,1-2.72,2.44,3,3,0,0,1-1.57.56,3.47,3.47,0,0,1-1.47-.15,3.81,3.81,0,0,1-1.45-.91,4,4,0,0,1-.93-1.48,3.28,3.28,0,0,1-.11-1.43,3.18,3.18,0,0,1,.55-1.58A13.27,13.27,0,0,1,12.78,22c.59-.59,1.38-1.39,1.81-1.78,1.42-1.29-.25-3.32-1.87-2-.51.4-1.08,1-1.72,1.66a19.44,19.44,0,0,0-2.53,2.83A6,6,0,0,0,7.57,27.38Z" transform="translate(-7.42 -7.19)"/><path class="cls-1" d="M32.61,12.41a6.34,6.34,0,0,0-1.83-3.27,6.42,6.42,0,0,0-6.33-1.72,5,5,0,0,0-1.65.79,30.27,30.27,0,0,0-3.12,2.86,30.32,30.32,0,0,0-2.84,3.11,5.1,5.1,0,0,0-.51.86q-.15.38-.3.81A6.08,6.08,0,0,0,16,18.91a6.37,6.37,0,0,0,1.79,3.26,1.38,1.38,0,0,0,1.94-1.94,4.34,4.34,0,0,1-.89-1.47,3.22,3.22,0,0,1-.17-1.45,3,3,0,0,1,.58-1.58A21.16,21.16,0,0,1,21.63,13a21.65,21.65,0,0,1,2.72-2.44A3,3,0,0,1,25.92,10a3.47,3.47,0,0,1,1.47.15,3.81,3.81,0,0,1,1.45.91,4,4,0,0,1,.93,1.48A3.28,3.28,0,0,1,29.89,14a3.18,3.18,0,0,1-.55,1.58A13.27,13.27,0,0,1,27.4,17.8c-.59.59-1.38,1.39-1.81,1.78-1.42,1.29.25,3.32,1.88,2,.51-.4,1.08-1,1.72-1.66a19.44,19.44,0,0,0,2.53-2.83A6,6,0,0,0,32.61,12.41Z" transform="translate(-7.42 -7.19)"/></svg>