<svg id="mix_icon_letter_grey" xmlns="http://www.w3.org/2000/svg" viewBox="0 0 21 14"><defs><style>.cls-1{fill:#F8BB29;}</style></defs><title>mix_icon_letter_grey</title><path class="cls-1" d="M10.76,8.75h0a.81.81,0,0,0,.44-.13l0,0h0l.4-.33L21.22.4a.11.11,0,0,0-.09,0H.35L.28.38l10,8.21A.78.78,0,0,0,10.76,8.75ZM.24,1.47V13.11L7.39,7.35ZM14.09,7.39l7.15,5.73V1.5ZM11.82,9.25a1.71,1.71,0,0,1-2.1,0L8.08,7.91.24,14.22v0a.11.11,0,0,0,.11.11H21.13a.11.11,0,0,0,.11-.11v0L13.4,7.95Z" transform="translate(-0.24 -0.35)"/></svg>